<svg class="main-svg" xmlns="http://www.w3.org/2000/svg" xmlns:xlink="http://www.w3.org/1999/xlink" width="700" height="450" style="" viewBox="0 0 700 450"><rect x="0" y="0" width="700" height="450" style="fill: rgb(255, 255, 255); fill-opacity: 1;"/><defs id="defs-327137"><g class="clips"><clipPath id="clip327137xyplot" class="plotclip"><rect width="519" height="330"/></clipPath><clipPath class="axesclip" id="clip327137x"><rect x="60" y="0" width="519" height="450"/></clipPath><clipPath class="axesclip" id="clip327137y"><rect x="0" y="60" width="700" height="330"/></clipPath><clipPath class="axesclip" id="clip327137xy"><rect x="60" y="60" width="519" height="330"/></clipPath></g><g class="gradients"/></defs><g class="bglayer"/><g class="layer-below"><g class="imagelayer"/><g class="shapelayer"/></g><g class="cartesianlayer"><g class="subplot xy"><g class="layer-subplot"><g class="shapelayer"/><g class="imagelayer"/></g><g class="gridlayer"><g class="x"><path class="xgrid crisp" transform="translate(208.29,0)" d="M0,60v330" style="stroke: rgb(238, 238, 238); stroke-opacity: 1; stroke-width: 1px;"/><path class="xgrid crisp" transform="translate(356.57,0)" d="M0,60v330" style="stroke: rgb(238, 238, 238); stroke-opacity: 1; stroke-width: 1px;"/><path class="xgrid crisp" transform="translate(504.86,0)" d="M0,60v330" style="stroke: rgb(238, 238, 238); stroke-opacity: 1; stroke-width: 1px;"/></g><g class="y"><path class="ygrid crisp" transform="translate(0,351.96)" d="M60,0h519" style="stroke: rgb(238, 238, 238); stroke-opacity: 1; stroke-width: 1px;"/><path class="ygrid crisp" transform="translate(0,311.81)" d="M60,0h519" style="stroke: rgb(238, 238, 238); stroke-opacity: 1; stroke-width: 1px;"/><path class="ygrid crisp" transform="translate(0,271.65999999999997)" d="M60,0h519" style="stroke: rgb(238, 238, 238); stroke-opacity: 1; stroke-width: 1px;"/><path class="ygrid crisp" transform="translate(0,231.51)" d="M60,0h519" style="stroke: rgb(238, 238, 238); stroke-opacity: 1; stroke-width: 1px;"/><path class="ygrid crisp" transform="translate(0,191.35)" d="M60,0h519" style="stroke: rgb(238, 238, 238); stroke-opacity: 1; stroke-width: 1px;"/><path class="ygrid crisp" transform="translate(0,151.2)" d="M60,0h519" style="stroke: rgb(238, 238, 238); stroke-opacity: 1; stroke-width: 1px;"/><path class="ygrid crisp" transform="translate(0,111.05)" d="M60,0h519" style="stroke: rgb(238, 238, 238); stroke-opacity: 1; stroke-width: 1px;"/><path class="ygrid crisp" transform="translate(0,70.9)" d="M60,0h519" style="stroke: rgb(238, 238, 238); stroke-opacity: 1; stroke-width: 1px;"/></g></g><g class="zerolinelayer"><path class="xzl zl crisp" transform="translate(60,0)" d="M0,60v330" style="stroke: rgb(68, 68, 68); stroke-opacity: 1; stroke-width: 1px;"/></g><path class="xlines-below"/><path class="ylines-below"/><g class="overlines-below"/><g class="xaxislayer-below"/><g class="yaxislayer-below"/><g class="overaxes-below"/><g class="plot" transform="translate(60, 60)" clip-path="url(#clip327137xyplot)"><g class="scatterlayer mlayer"><g class="trace scatter trace52ddd0" style="stroke-miterlimit: 2; opacity: 1;"><g class="fills"/><g class="errorbars"/><g class="lines"><path class="js-line" d="M0,222.64L2.97,310.77L5.93,289.51L8.9,290.7L11.86,298.25L14.83,198.23L17.79,273.91L20.76,200.74L23.73,195.78L26.69,207.67L29.66,253.06L32.62,208.16L35.59,302.24L38.55,191.51L41.52,201.37L44.49,188.15L47.45,301.26L50.42,267.26L53.38,185.08L56.35,207.67L59.31,280.27L62.28,174.58L65.25,199.55L68.21,178.57L71.18,176.05L74.14,262.93L77.11,194.59L80.07,196.83L83.04,191.37L86.01,188.22L88.97,156.33L91.94,224.25L94.9,205.15L97.87,182.56L100.83,194.03L103.8,218.23L106.77,222.99L109.73,160.66L112.7,150.52L115.66,157.31L118.63,130.38L121.59,145.76L124.56,137.65L127.53,120.44L130.49,128.98L133.46,129.75L136.42,116.32L142.35,130.31L145.32,158.84L148.29,105.05L151.25,103.87L154.22,130.59L157.18,101.84L160.15,120.86L163.11,117.51L166.08,108.97L169.05,92.32L172.01,84.56L174.98,103.66L177.94,99.39L180.91,86.03L183.87,90.3L186.84,97.99L189.81,77.22L192.77,86.52L195.74,84.84L198.7,79.73L201.67,132.26L204.63,78.54L207.6,72.46L210.57,77.84L213.53,71.13L216.5,74.42L219.46,79.59L222.43,96.8L225.39,63.44L228.36,86.38L231.33,70.15L234.29,68.82L237.26,59.66L240.22,58.19L243.19,88.13L246.15,57.98L249.12,61.48L252.09,55.25L255.05,98.48L258.02,52.45L260.98,80.99L263.95,57.7L266.91,62.88L269.88,55.18L272.85,66.02L275.81,67.7L278.78,50.84L281.74,58.26L284.71,72.88L287.67,52.45L290.64,53.22L293.61,77.63L296.57,81.83L299.54,68.68L302.5,76.94L305.47,45.6L308.43,53.22L311.4,47.98L314.37,76.38L317.33,47.98L320.3,52.17L323.26,54.13L326.23,60.85L329.19,54.06L332.16,64.13L335.13,42.1L338.09,54.62L341.06,49.03L344.02,45.04L346.99,43.99L349.95,60.57L352.92,47.77L355.89,61.27L358.85,53.71L361.82,47.14L364.78,68.19L367.75,55.04L370.71,32.8L373.68,37.27L376.65,31.26L379.61,43.22L382.58,39.51L385.54,33.64L388.51,34.27L391.47,49.73L394.44,54.2L397.41,31.96L400.37,52.59L403.34,27.97L406.3,35.6L409.27,27.69L412.23,32.87L415.2,35.81L418.17,50.35L421.13,29.51L424.1,39.37L427.06,51.68L430.03,27.48L432.99,40.91L435.96,34.41L438.93,30.49L441.89,30.98L444.86,30.98L447.82,24.68L453.75,38.32L456.72,23.91L459.69,22.17L462.65,26.36L465.62,27.2L468.58,24.26L471.55,27.48L474.51,33.08L477.48,31.89L480.45,21.33L486.38,18.53L489.34,23.28L492.31,18.32L495.27,25.03L498.24,31.96L501.21,17.2L507.14,22.87L510.1,19.37L513.07,48.54L516.03,16.5L519,18.74" style="vector-effect: non-scaling-stroke; fill: none; stroke: rgb(31, 119, 180); stroke-opacity: 1; stroke-width: 2px; opacity: 1;"/></g><g class="points"/><g class="text"/></g><g class="trace scatter trace548df7" style="stroke-miterlimit: 2; opacity: 1;"><g class="fills"/><g class="errorbars"/><g class="lines"><path class="js-line" d="M0,232.37L2.97,310.64L5.93,291.4L8.9,297.92L11.86,299.23L14.83,213.12L17.79,276.72L20.76,211.49L23.73,209.54L26.69,213.12L29.66,263.03L32.62,213.12L35.59,302.82L38.55,202.36L41.52,211.17L44.49,200.73L47.45,302.49L50.42,272.16L53.38,200.4L56.35,213.12L59.31,281.29L62.28,192.58L65.25,228.45L68.21,189.97L71.18,188.99L74.14,274.77L77.11,223.89L80.07,222.91L83.04,202.36L86.01,207.58L88.97,173.66L91.94,227.47L94.9,210.19L97.87,191.92L100.83,202.03L103.8,223.56L106.77,235.63L109.73,182.14L112.7,176.27L115.66,177.57L118.63,159.31L121.59,159.63L124.56,160.94L127.53,148.54L130.49,151.48L133.46,154.41L136.42,137.78L139.39,137.13L142.35,146.91L145.32,167.79L148.29,127.02L151.25,122.78L154.22,153.44L157.18,121.47L160.15,140.72L163.11,138.11L166.08,124.73L169.05,112.67L172.01,109.4L174.98,127.67L177.94,122.12L180.91,107.12L183.87,109.08L186.84,120.49L189.81,105.49L192.77,107.12L195.74,106.14L198.7,106.14L201.67,143.65L204.63,101.9L207.6,100.27L210.57,100.27L213.53,97.99L216.5,99.95L219.46,105.49L222.43,123.76L225.39,91.47L228.36,113.32L231.33,91.14L234.29,95.71L237.26,87.55L240.22,85.27L243.19,110.71L246.15,83.64L249.12,88.86L252.09,80.05L255.05,125.06L258.02,79.4L260.98,103.86L263.95,83.96L266.91,88.86L269.88,82.33L272.85,93.1L275.81,91.14L278.78,79.72L281.74,82.33L284.71,99.95L287.67,80.7L290.64,83.31L293.61,106.14L296.57,114.3L299.54,92.12L302.5,104.84L305.47,77.44L308.43,81.68L311.4,74.18L314.37,97.01L317.33,75.16L320.3,81.03L323.26,82.99L326.23,87.23L329.19,86.25L332.16,93.75L335.13,73.85L338.09,89.18L341.06,77.11L344.02,81.03L346.99,73.53L349.95,94.07L352.92,77.11L355.89,91.79L361.82,79.72L364.78,96.03L367.75,92.12L370.71,71.9L373.68,77.77L376.65,65.37L379.61,80.05L382.58,72.22L385.54,68.31L388.51,73.85L391.47,86.25L394.44,92.12L397.41,69.94L400.37,87.88L403.34,67.66L406.3,68.31L415.2,70.92L418.17,80.05L421.13,65.7L424.1,74.83L427.06,89.83L430.03,67.98L432.99,82.99L435.96,72.22L438.93,67.33L441.89,72.22L447.82,66.03L450.79,69.61L453.75,81.68L456.72,66.03L459.69,64.39L462.65,71.24L465.62,68.63L468.58,69.61L471.55,74.83L474.51,71.57L477.48,72.22L480.45,67.66L483.41,67.33L486.38,62.11L489.34,68.31L492.31,66.68L498.24,74.51L501.21,64.72L504.17,64.39L507.14,70.92L510.1,68.96L513.07,93.42L516.03,65.7L519,66.35" style="vector-effect: non-scaling-stroke; fill: none; stroke: rgb(255, 127, 14); stroke-opacity: 1; stroke-width: 2px; opacity: 1;"/></g><g class="points"/><g class="text"/></g><g class="trace scatter trace2b3e5c" style="stroke-miterlimit: 2; opacity: 1;"><g class="fills"/><g class="errorbars"/><g class="lines"><path class="js-line" d="M0,227.98L2.97,313.5L5.93,290.98L8.9,290.98L11.86,302.08L14.83,198.6L17.79,279.88L20.76,205.13L23.73,194.35L26.69,205.78L29.66,262.58L32.62,205.78L35.59,306.97L38.55,193.38L41.52,206.11L44.49,187.83L47.45,303.71L50.42,274L53.38,189.46L56.35,205.45L59.31,284.45L62.28,182.93L65.25,217.86L68.21,179.67L71.18,175.1L74.14,276.29L77.11,214.27L83.04,192.4L86.01,192.72L88.97,171.18L91.94,233.53L97.87,180.65L100.83,192.07L103.8,229.28L106.77,238.75L109.73,175.75L112.7,166.61L115.66,170.85L118.63,151.27L121.59,152.25L124.56,154.86L127.53,138.54L130.49,140.82L133.46,146.37L136.42,122.87L139.39,127.76L142.35,140.82L145.32,160.08L148.29,120.58L151.25,115.69L154.22,144.09L157.18,109.16L160.15,140.17L166.08,116.99L169.05,102.63L172.01,98.39L174.98,118.95L177.94,114.71L180.91,96.43L183.87,100.02L186.84,118.95L189.81,90.88L192.77,103.28L195.74,100.34L198.7,96.1L201.67,140.82L204.63,100.02L207.6,91.53L210.57,93.16L213.53,93.49L216.5,96.1L219.46,97.41L222.43,111.44L225.39,90.23L228.36,106.55L231.33,87.94L234.29,89.9L237.26,85.98L240.22,85L243.19,103.28L246.15,83.37L249.12,82.39L252.09,79.78L255.05,116.34L258.02,78.47L260.98,101.98L263.95,80.43L266.91,82.39L269.88,78.8L272.85,91.86L275.81,85.33L278.78,77.49L281.74,82.72L284.71,89.9L287.67,77.49L290.64,78.47L293.61,97.41L296.57,103.94L299.54,88.59L302.5,96.1L305.47,75.21L308.43,78.47L311.4,73.25L314.37,92.51L317.33,75.21L323.26,77.17L326.23,80.76L329.19,74.88L332.16,84.68L335.13,69.66L338.09,78.15L341.06,73.25L344.02,74.23L346.99,69.99L349.95,88.27L352.92,71.62L355.89,91.53L358.85,77.49L361.82,72.92L364.78,95.12L367.75,85.33L370.71,66.72L373.68,71.95L376.65,66.72L379.61,68.03L382.58,69.01L385.54,65.42L388.51,68.35L391.47,75.86L394.44,79.13L397.41,65.74L400.37,82.39L403.34,65.42L406.3,67.7L409.27,65.42L412.23,65.09L415.2,66.72L418.17,77.82L421.13,65.42L427.06,83.7L430.03,63.78L432.99,73.58L435.96,66.72L438.93,67.7L441.89,63.46L444.86,65.09L447.82,65.74L450.79,68.03L453.75,72.92L456.72,64.76L459.69,62.81L462.65,64.44L465.62,67.05L468.58,65.42L471.55,66.72L474.51,69.33L477.48,70.31L480.45,63.78L483.41,62.15L486.38,62.48L489.34,63.78L492.31,62.15L495.27,61.83L498.24,73.25L501.21,65.09L504.17,61.5L507.14,62.48L510.1,60.52L513.07,84.02L516.03,61.17L519,62.48" style="vector-effect: non-scaling-stroke; fill: none; stroke: rgb(44, 160, 44); stroke-opacity: 1; stroke-width: 2px; opacity: 1;"/></g><g class="points"/><g class="text"/></g></g></g><g class="overplot"/><path class="xlines-above crisp" d="M0,0" style="fill: none;"/><path class="ylines-above crisp" d="M0,0" style="fill: none;"/><g class="overlines-above"/><g class="xaxislayer-above"><g class="xtick"><text text-anchor="middle" x="0" y="403" transform="translate(60,0)" style="font-family: 'Open Sans', verdana, arial, sans-serif; font-size: 12px; fill: rgb(68, 68, 68); fill-opacity: 1; white-space: pre;">0</text></g><g class="xtick"><text text-anchor="middle" x="0" y="403" transform="translate(208.29,0)" style="font-family: 'Open Sans', verdana, arial, sans-serif; font-size: 12px; fill: rgb(68, 68, 68); fill-opacity: 1; white-space: pre;">50</text></g><g class="xtick"><text text-anchor="middle" x="0" y="403" transform="translate(356.57,0)" style="font-family: 'Open Sans', verdana, arial, sans-serif; font-size: 12px; fill: rgb(68, 68, 68); fill-opacity: 1; white-space: pre;">100</text></g><g class="xtick"><text text-anchor="middle" x="0" y="403" transform="translate(504.86,0)" style="font-family: 'Open Sans', verdana, arial, sans-serif; font-size: 12px; fill: rgb(68, 68, 68); fill-opacity: 1; white-space: pre;">150</text></g></g><g class="yaxislayer-above"><g class="ytick"><text text-anchor="end" x="59" y="4.199999999999999" transform="translate(0,351.96)" style="font-family: 'Open Sans', verdana, arial, sans-serif; font-size: 12px; fill: rgb(68, 68, 68); fill-opacity: 1; white-space: pre;">0.3</text></g><g class="ytick"><text text-anchor="end" x="59" y="4.199999999999999" transform="translate(0,311.81)" style="font-family: 'Open Sans', verdana, arial, sans-serif; font-size: 12px; fill: rgb(68, 68, 68); fill-opacity: 1; white-space: pre;">0.4</text></g><g class="ytick"><text text-anchor="end" x="59" y="4.199999999999999" transform="translate(0,271.65999999999997)" style="font-family: 'Open Sans', verdana, arial, sans-serif; font-size: 12px; fill: rgb(68, 68, 68); fill-opacity: 1; white-space: pre;">0.5</text></g><g class="ytick"><text text-anchor="end" x="59" y="4.199999999999999" transform="translate(0,231.51)" style="font-family: 'Open Sans', verdana, arial, sans-serif; font-size: 12px; fill: rgb(68, 68, 68); fill-opacity: 1; white-space: pre;">0.6</text></g><g class="ytick"><text text-anchor="end" x="59" y="4.199999999999999" transform="translate(0,191.35)" style="font-family: 'Open Sans', verdana, arial, sans-serif; font-size: 12px; fill: rgb(68, 68, 68); fill-opacity: 1; white-space: pre;">0.7</text></g><g class="ytick"><text text-anchor="end" x="59" y="4.199999999999999" transform="translate(0,151.2)" style="font-family: 'Open Sans', verdana, arial, sans-serif; font-size: 12px; fill: rgb(68, 68, 68); fill-opacity: 1; white-space: pre;">0.8</text></g><g class="ytick"><text text-anchor="end" x="59" y="4.199999999999999" transform="translate(0,111.05)" style="font-family: 'Open Sans', verdana, arial, sans-serif; font-size: 12px; fill: rgb(68, 68, 68); fill-opacity: 1; white-space: pre;">0.9</text></g><g class="ytick"><text text-anchor="end" x="59" y="4.199999999999999" transform="translate(0,70.9)" style="font-family: 'Open Sans', verdana, arial, sans-serif; font-size: 12px; fill: rgb(68, 68, 68); fill-opacity: 1; white-space: pre;">1</text></g></g><g class="overaxes-above"/></g></g><g class="polarlayer"/><g class="ternarylayer"/><g class="geolayer"/><g class="pielayer"/><g class="glimages"/><defs id="topdefs-327137"><g class="clips"/><clipPath id="legend327137"><rect width="99" height="67" x="0" y="0"/></clipPath></defs><g class="layer-above"><g class="imagelayer"/><g class="shapelayer"/></g><g class="infolayer"><g class="legend" pointer-events="all" transform="translate(589.38, 60)"><rect class="bg" shape-rendering="crispEdges" width="99" height="67" x="0" y="0" style="stroke: rgb(68, 68, 68); stroke-opacity: 1; fill: rgb(255, 255, 255); fill-opacity: 1; stroke-width: 0px;"/><g class="scrollbox" transform="translate(0, 0)" clip-path="url(#legend327137)"><g class="groups"><g class="traces" transform="translate(0, 14.5)" style="opacity: 1;"><g class="layers" style="opacity: 1;"><g class="legendfill"/><g class="legendlines"><path class="js-line" d="M5,0h30" style="fill: none; stroke: rgb(31, 119, 180); stroke-opacity: 1; stroke-width: 2px;"/></g><g class="legendsymbols"><g class="legendpoints"/></g></g><text class="legendtext user-select-none" text-anchor="start" x="40" y="4.680000000000001" style="font-family: 'Open Sans', verdana, arial, sans-serif; font-size: 12px; fill: rgb(68, 68, 68); fill-opacity: 1; white-space: pre;">Training</text><rect class="legendtoggle" pointer-events="all" x="0" y="-9.5" width="139" height="19" style="cursor: pointer; fill: rgb(0, 0, 0); fill-opacity: 0;"/></g><g class="traces" transform="translate(0, 33.5)" style="opacity: 1;"><g class="layers" style="opacity: 1;"><g class="legendfill"/><g class="legendlines"><path class="js-line" d="M5,0h30" style="fill: none; stroke: rgb(255, 127, 14); stroke-opacity: 1; stroke-width: 2px;"/></g><g class="legendsymbols"><g class="legendpoints"/></g></g><text class="legendtext user-select-none" text-anchor="start" x="40" y="4.680000000000001" style="font-family: 'Open Sans', verdana, arial, sans-serif; font-size: 12px; fill: rgb(68, 68, 68); fill-opacity: 1; white-space: pre;">Validation</text><rect class="legendtoggle" pointer-events="all" x="0" y="-9.5" width="139" height="19" style="cursor: pointer; fill: rgb(0, 0, 0); fill-opacity: 0;"/></g><g class="traces" transform="translate(0, 52.5)" style="opacity: 1;"><g class="layers" style="opacity: 1;"><g class="legendfill"/><g class="legendlines"><path class="js-line" d="M5,0h30" style="fill: none; stroke: rgb(44, 160, 44); stroke-opacity: 1; stroke-width: 2px;"/></g><g class="legendsymbols"><g class="legendpoints"/></g></g><text class="legendtext user-select-none" text-anchor="start" x="40" y="4.680000000000001" style="font-family: 'Open Sans', verdana, arial, sans-serif; font-size: 12px; fill: rgb(68, 68, 68); fill-opacity: 1; white-space: pre;">Testing</text><rect class="legendtoggle" pointer-events="all" x="0" y="-9.5" width="139" height="19" style="cursor: pointer; fill: rgb(0, 0, 0); fill-opacity: 0;"/></g></g></g><rect class="scrollbar" rx="20" ry="3" width="0" height="0" x="0" y="0" style="fill: rgb(128, 139, 164); fill-opacity: 1;"/></g><g class="g-gtitle"><text class="gtitle" x="350" y="30" text-anchor="middle" dy="0em" style="font-family: 'Open Sans', verdana, arial, sans-serif; font-size: 17px; fill: rgb(68, 68, 68); opacity: 1; font-weight: normal; white-space: pre;">Task type classification</text></g><g class="g-xtitle"><text class="xtitle" x="319.5" y="442" text-anchor="middle" style="font-family: 'Open Sans', verdana, arial, sans-serif; font-size: 14px; fill: rgb(68, 68, 68); opacity: 1; font-weight: normal; white-space: pre;">Epochs</text></g><g class="g-ytitle"><text class="ytitle" transform="rotate(-90,22,225)" x="22" y="225" text-anchor="middle" style="font-family: 'Open Sans', verdana, arial, sans-serif; font-size: 14px; fill: rgb(68, 68, 68); opacity: 1; font-weight: normal; white-space: pre;">Accuracy</text></g></g></svg>